<svg width="137" height="176" viewBox="0 0 137 176" fill="none" xmlns="http://www.w3.org/2000/svg">
<g clip-path="url(#clip0_386_10203)">
<path d="M92.6885 45.647C92.6885 45.647 95.6655 47.3619 96.4796 52.9736C97.1531 57.6252 98.8781 67.5278 100.183 75.9223C100.183 75.9223 102.117 82.5169 102.402 94.2123C102.402 94.2123 102.402 95.9272 101.614 96.1253C101.667 96.8678 101.882 98.5368 101.901 98.9063C101.901 98.9063 99.1946 100.37 96.4497 99.244C96.4497 99.244 96.2264 97.5786 96.1561 96.7688C95.8167 96.7511 95.1309 95.9078 94.8566 95.0468C94.8566 95.0468 93.0208 82.7097 92.0308 77.6107C91.5279 75.0206 89.6534 67.4765 88.8973 60.1075C88.1869 53.1415 89.5391 46.5327 92.6885 45.647Z" fill="#24262F"/>
<path d="M61.4246 101.9C62.761 93.4013 63.1496 90.3305 65.65 82.2002C65.6782 81.9244 65.7098 81.2702 65.7327 80.7858C65.7327 80.7858 65.9085 78.8658 65.9226 78.3866C66.0105 76.4135 66.0984 75.968 65.9965 75.3015C64.4332 64.7465 61.4246 46.5343 61.4246 46.5343C64.9045 43.8823 73.1902 38.8452 73.1902 38.8452C77.7128 41.6422 81.4548 39.022 81.4548 39.022C86.73 41.7324 92.6875 45.6467 92.6875 45.6467C92.8001 47.0187 91.5322 68.454 90.4016 75.4871C90.3101 76.0529 95.7314 96.5706 95.501 113.367C95.239 132.79 94.6622 181.026 94.6622 181.026C94.6622 181.026 89.0142 184.421 77.2539 182.28C77.2539 182.28 72.434 181.396 65.5182 182.824C65.5182 182.824 56.0825 183.931 48.989 180.312C48.9996 180.312 59.9492 111.283 61.4246 101.9Z" fill="#24262F"/>
<path d="M90.6943 71.6029C91.0056 66.8965 91.8777 52.9027 92.0817 50.5796C92.1914 50.6334 92.3042 50.6806 92.4194 50.721C92.2119 53.0566 91.3431 67.0256 91.0337 71.7002C90.9238 71.6571 90.8103 71.6245 90.6943 71.6029Z" fill="#5B5F70"/>
<path d="M63.8354 55.355C63.8072 55.355 63.7791 55.3674 63.751 55.3745C64.4227 58.5869 64.5264 62.1477 64.5071 64.4231C64.5984 64.3321 64.6999 64.252 64.8095 64.1844C64.8289 61.886 64.7146 58.426 64.0481 55.2808C63.9787 55.3097 63.9077 55.3345 63.8354 55.355Z" fill="#5B5F70"/>
<path d="M65.5767 44.5206C74.9227 56.3662 86.8782 53.2917 89.4771 45.0139C89.5299 44.7717 67.2524 42.6642 65.5767 44.5206Z" fill="#5B5F70"/>
<path d="M86.8412 42.509C86.0306 41.9892 85.2586 37.7354 83.9328 37.9298C83.9328 37.9298 86.2451 35.6155 87.3406 32.8345C88.5715 29.6945 88.6946 23.3774 88.2743 20.9747C87.8541 18.572 83.8273 12.7605 78.3921 11.9985C72.9409 12.8825 68.6838 17.8754 68.107 20.2622C67.5302 22.649 67.6129 28.0679 68.5361 31.7188C68.9475 33.3436 71.7347 37.5886 71.7347 37.5886C69.8109 37.4755 69.1269 39.3566 67.6621 42.7388C67.6621 42.7388 67.2524 42.6628 65.5767 44.5192C77.0556 54.5738 86.5582 52.9579 89.4771 45.0125C89.5299 44.772 87.5604 42.6239 86.8412 42.509Z" fill="#24262F"/>
<path d="M83.7783 34.3103C82.5791 35.7936 79.8905 37.8622 78.2569 37.9188C77.3777 37.8728 73.7008 35.9139 72.6932 34.5118C70.9524 32.0844 71.6083 29.6693 71.6118 27.2135C71.6118 26.4073 71.5854 22.3179 72.9411 20.8222C73.0238 20.732 75.3027 18.8066 78.234 18.2214C80.1682 18.4637 82.8886 20.6471 83.1664 20.9583C84.0456 21.9466 84.559 25.3889 84.5309 27.3461C84.5027 29.2485 85.331 32.3938 83.7783 34.3103Z" fill="#6C6F7D"/>
<path d="M83.3256 33.3786C82.1122 34.8691 79.8404 36.9995 78.1927 37.0614C77.3135 37.0136 74.0868 34.9044 73.0722 33.4953C71.3138 31.0466 71.5687 28.1913 71.5758 25.7161C71.5758 25.5658 71.5758 25.2918 71.5758 24.9506C71.6074 23.446 71.7991 20.497 72.9069 19.2735C72.9931 19.1851 75.2878 17.2421 78.2419 16.6533C80.1938 16.8938 82.9369 19.0949 83.213 19.4096C84.1045 20.4086 84.6198 23.8756 84.5917 25.8469C84.5917 26.2005 84.611 26.5842 84.6444 27.0085C84.7921 28.8791 84.6074 31.798 83.3256 33.3786Z" fill="url(#paint0_linear_386_10203)"/>
<path opacity="0.5" d="M84.4504 23.5095C84.206 22.2719 83.8508 21.1775 83.3954 20.6807C83.1105 20.3589 80.2618 18.0675 78.2309 17.8218C75.1659 18.43 72.7798 20.4473 72.6919 20.5427C72.2575 21.0148 71.9604 21.7397 71.7634 22.5406C71.9393 21.2818 72.2646 19.9894 72.9099 19.2786C72.9961 19.1885 75.2908 17.2472 78.2449 16.6584C80.1968 16.8971 82.9399 19.1001 83.216 19.4148C83.8174 20.076 84.2394 21.8228 84.4504 23.5095Z" fill="#E08C64"/>
<path d="M77.3342 29.4998C77.3342 29.4998 78.4684 30.9849 79.8382 29.4998Z" fill="#DBA99B"/>
<path d="M76.243 24.2346C76.2884 24.2692 76.3246 24.3142 76.3488 24.3659C76.373 24.4177 76.3843 24.4745 76.3819 24.5316L76.352 24.8976C76.3379 25.0461 76.2131 25.2265 76.076 25.1805C74.9928 24.8145 72.9319 24.712 72.0632 25.5235L73.0814 24.5405L76.243 24.2346Z" fill="#DBA99B"/>
<path d="M76.2486 26.342C75.9519 25.9377 75.5174 25.6576 75.0283 25.5552C75.0283 25.5552 74.5711 25.3996 73.6655 25.7797C73.613 25.8013 73.5662 25.8346 73.5284 25.877C73.3243 26.0864 73.2062 26.3654 73.1978 26.6584C73.1995 26.6941 73.2083 26.7291 73.2237 26.7613C73.2391 26.7935 73.2608 26.8222 73.2874 26.8459C73.5336 27.0527 74.3847 27.5407 76.2276 26.4551C76.2367 26.4494 76.2446 26.4419 76.2507 26.4329C76.2568 26.424 76.261 26.4139 76.263 26.4032C76.265 26.3926 76.2647 26.3816 76.2622 26.3711C76.2598 26.3605 76.2551 26.3506 76.2486 26.342Z" fill="#FEFEFE"/>
<path d="M76.4681 26.3331C76.1243 25.8629 75.6205 25.5362 75.0526 25.4155C75.0526 25.4155 74.525 25.2387 73.47 25.6754C73.4094 25.7007 73.3553 25.7394 73.3117 25.7886C73.0805 26.0681 72.9514 26.4187 72.946 26.7822C72.946 26.8671 72.6716 27.0032 72.6716 27.0032C72.7899 27.0077 72.9076 27.0225 73.0233 27.0474C73.4242 27.2242 74.416 27.6627 76.4452 26.4657C76.4558 26.4588 76.4647 26.4498 76.4716 26.4393C76.4785 26.4287 76.4832 26.4169 76.4853 26.4044C76.4875 26.392 76.4871 26.3792 76.4841 26.367C76.4812 26.3547 76.4757 26.3432 76.4681 26.3331Z" fill="#DBA99B"/>
<path d="M76.2196 26.326C75.9201 25.9172 75.4824 25.6324 74.9887 25.5251C74.9887 25.5251 74.5263 25.3678 73.6102 25.7514C73.5571 25.7736 73.5097 25.8075 73.4712 25.8504C73.2645 26.0625 73.1458 26.3457 73.1389 26.6425C73.1404 26.6787 73.1493 26.7141 73.165 26.7467C73.1807 26.7792 73.203 26.8081 73.2304 26.8317C73.4783 27.0438 74.3399 27.5389 76.2021 26.441C76.2109 26.4346 76.2183 26.4266 76.2239 26.4174C76.2296 26.4082 76.2333 26.3979 76.2349 26.3872C76.2366 26.3765 76.2361 26.3656 76.2335 26.3551C76.2308 26.3446 76.2261 26.3347 76.2196 26.326Z" fill="#FEFEFE"/>
<path d="M73.9368 26.5966C74.0167 26.8223 74.1807 27.008 74.394 27.1146C74.6844 27.0826 74.9693 27.0125 75.2416 26.906C75.329 26.7781 75.3839 26.6307 75.4014 26.4765C75.4188 26.3224 75.3984 26.1663 75.3419 26.022C75.2625 25.7996 75.1022 25.6157 74.8934 25.5075C74.6578 25.4808 74.4194 25.4982 74.19 25.5587C74.0426 25.6815 73.9385 25.8487 73.8929 26.0356C73.8473 26.2225 73.8627 26.4192 73.9368 26.5966Z" fill="#462012"/>
<path d="M74.1817 26.4586C74.2942 26.7592 74.5827 26.9218 74.8288 26.8122C74.9533 26.7441 75.0473 26.6309 75.0917 26.4956C75.1362 26.3603 75.1277 26.213 75.068 26.0838C75.0291 25.95 74.9394 25.837 74.8183 25.7692C74.6972 25.7014 74.5544 25.6842 74.4208 25.7214C74.2938 25.7892 74.198 25.904 74.1534 26.0415C74.1088 26.179 74.1189 26.3285 74.1817 26.4586Z" fill="#030304"/>
<path d="M76.1861 24.139C76.1861 24.139 73.77 23.4813 72.6359 24.3158C72.2696 24.6495 72.0401 25.1084 71.9923 25.6029C71.9923 25.6029 71.9835 25.8416 72.1312 25.5711C72.2789 25.3006 73.8281 24.2044 75.947 24.9293L76.1228 24.9895C76.1228 24.9895 76.3584 24.6836 76.376 24.7295C76.3919 24.6124 76.3984 24.4941 76.3953 24.3759C76.3953 24.3759 76.3163 24.4343 76.3127 24.4873C76.3084 24.5223 76.2944 24.5554 76.2723 24.5828C76.2723 24.5828 76.274 24.1408 76.1861 24.139Z" fill="#1C1C1C"/>
<path d="M74.7393 25.8752C74.7885 26.006 74.9011 26.0838 74.9907 26.052C75.0804 26.0201 75.112 25.8751 75.0628 25.7461C75.0135 25.617 74.901 25.5374 74.8131 25.5693C74.7654 25.6021 74.7314 25.6515 74.7178 25.708C74.7041 25.7644 74.7118 25.824 74.7393 25.8752Z" fill="#FCFFFE"/>
<path d="M74.8268 25.557C74.875 25.5595 74.9227 25.5672 74.9693 25.5799H74.9816C75.6111 25.6613 76.0366 26.1598 76.1967 26.3702C75.3333 26.8812 74.5877 27.111 73.9775 27.0562C73.7075 27.0431 73.4484 26.9448 73.2372 26.7751C73.2184 26.7584 73.2031 26.738 73.1922 26.7152C73.1814 26.6925 73.1751 26.6677 73.1739 26.6425C73.1792 26.3671 73.2864 26.1036 73.4746 25.9035C73.5182 25.8554 73.5716 25.8174 73.6311 25.7921C74.0048 25.6166 74.4147 25.533 74.8268 25.5481M74.8268 25.4739C74.4027 25.4576 73.9808 25.5431 73.5959 25.7232C73.5284 25.7531 73.4683 25.7978 73.4201 25.854C73.2185 26.0684 73.1043 26.351 73.1001 26.6461C73.1044 26.7174 73.1367 26.7842 73.1898 26.8317C73.4124 27.0097 73.6847 27.1135 73.9687 27.1287C74.4611 27.1729 75.1996 27.0456 76.2265 26.4339C76.2358 26.4283 76.244 26.4209 76.2502 26.412C76.2565 26.4032 76.2609 26.3931 76.263 26.3824C76.2652 26.3718 76.265 26.3607 76.2627 26.3501C76.2603 26.3395 76.2558 26.3295 76.2494 26.3207C76.1034 26.1245 75.6516 25.587 74.9869 25.5022C74.9358 25.4876 74.8833 25.4781 74.8304 25.4739H74.8268Z" fill="#633816"/>
<path d="M74.477 25.2155C75.6111 25.1076 76.0261 25.9085 76.1931 26.1879C76.2916 26.3505 76.4077 26.3488 76.369 26.4301C76.3303 26.5115 76.1475 26.4478 76.1475 26.4478C76.1475 26.4478 76.2564 26.4708 76.2933 26.4336C76.3303 26.3965 76.304 26.3594 76.2354 26.3488C76.2354 26.3488 75.7483 25.2968 74.2694 25.5249C73.4993 25.6451 73.1265 26.1083 73.1194 26.4902C72.6376 26.4213 72.2227 25.9598 72.2227 25.9598C73.0421 26.1066 73.2478 25.3339 74.477 25.2155Z" fill="#000304"/>
<path d="M79.2601 24.3989C79.2234 24.4432 79.1976 24.4956 79.1848 24.5518C79.172 24.608 79.1725 24.6664 79.1863 24.7224L79.2935 25.076C79.3357 25.2175 79.4957 25.3642 79.6188 25.2882C80.6018 24.6817 82.5906 24.1089 83.607 24.7012L82.4095 23.9763L79.2601 24.3989Z" fill="#DBA99B"/>
<path d="M79.6912 26.4584C79.8968 25.9954 80.2623 25.623 80.7199 25.41C80.7199 25.41 81.133 25.1536 82.0966 25.3162C82.1521 25.3261 82.205 25.3478 82.2514 25.3799C82.494 25.5379 82.6671 25.7834 82.735 26.0659C82.7413 26.1014 82.7401 26.1377 82.7317 26.1727C82.7232 26.2077 82.7075 26.2406 82.6857 26.2692C82.4905 26.5291 81.7608 27.2009 79.7368 26.5644C79.7267 26.5608 79.7175 26.555 79.7096 26.5476C79.7018 26.5402 79.6955 26.5312 79.6913 26.5213C79.687 26.5114 79.6848 26.5007 79.6848 26.4899C79.6848 26.479 79.6869 26.4683 79.6912 26.4584Z" fill="#FEFEFE"/>
<path d="M79.4844 26.499C79.721 25.9604 80.144 25.5263 80.6748 25.2774C80.6748 25.2774 81.1531 24.9803 82.2697 25.1677C82.3329 25.1795 82.3929 25.2048 82.4455 25.242C82.7288 25.4626 82.9276 25.7749 83.0083 26.126C83.0223 26.2108 83.323 26.278 83.323 26.278C83.2091 26.3103 83.098 26.3517 82.9907 26.4018C82.639 26.6741 81.7598 27.3229 79.5319 26.6193C79.5206 26.6149 79.5104 26.6082 79.5018 26.5996C79.4932 26.591 79.4865 26.5808 79.4821 26.5695C79.4776 26.5583 79.4755 26.5462 79.4759 26.5341C79.4763 26.5219 79.4792 26.51 79.4844 26.499Z" fill="#DBA99B"/>
<path d="M79.7185 26.4354C79.9261 25.9672 80.2952 25.5904 80.7577 25.3746C80.7577 25.3746 81.1762 25.113 82.1504 25.2774C82.2065 25.2879 82.2599 25.3102 82.3069 25.3428C82.5526 25.5034 82.7277 25.7528 82.7958 26.0394C82.8017 26.0756 82.8001 26.1125 82.7913 26.1481C82.7826 26.1837 82.7668 26.2171 82.7448 26.2463C82.5478 26.5097 81.8093 27.1904 79.7555 26.5468C79.7454 26.5423 79.7364 26.5358 79.729 26.5276C79.7216 26.5194 79.716 26.5098 79.7125 26.4993C79.7091 26.4888 79.7078 26.4778 79.7088 26.4668C79.7099 26.4558 79.7132 26.4451 79.7185 26.4354Z" fill="#FEFEFE"/>
<path d="M82.0027 26.1772C81.97 26.4168 81.8488 26.6352 81.6633 26.7889C81.3738 26.8222 81.0814 26.8186 80.7929 26.7783C80.6797 26.6725 80.5946 26.5399 80.5452 26.3927C80.4958 26.2454 80.4836 26.0882 80.5098 25.935C80.5409 25.6995 80.6589 25.4843 80.8404 25.3321C81.0658 25.2508 81.3044 25.213 81.5437 25.2207C81.713 25.3086 81.8492 25.4495 81.932 25.6219C82.0148 25.7944 82.0395 25.9893 82.0027 26.1772Z" fill="#462012"/>
<path d="M81.7316 26.0961C81.6842 26.4161 81.4362 26.6406 81.1759 26.6C81.0397 26.5622 80.9234 26.4726 80.8516 26.3502C80.7797 26.2279 80.758 26.0822 80.7909 25.944C80.8383 25.624 81.0863 25.3995 81.3465 25.4419C81.4824 25.4797 81.5984 25.569 81.6702 25.691C81.742 25.8129 81.764 25.9581 81.7316 26.0961Z" fill="#030304"/>
<path d="M79.2949 24.2979C79.2949 24.2979 81.5158 23.1045 82.7977 23.6579C83.2243 23.9003 83.5436 24.2965 83.6909 24.7664C83.6909 24.7664 83.7507 24.9981 83.5502 24.7664C83.3498 24.5348 81.616 23.8206 79.6941 25.0157L79.5393 25.1147C79.5393 25.1147 79.2456 24.869 79.2386 24.9167C79.1985 24.8076 79.168 24.6952 79.1472 24.5808C79.1472 24.5808 79.2351 24.6197 79.2509 24.6727C79.2618 24.7055 79.282 24.7344 79.309 24.7558C79.309 24.7558 79.2087 24.3156 79.2949 24.2979Z" fill="#1C1C1C"/>
<path d="M81.0697 25.6558C81.0486 25.7955 80.9555 25.8963 80.8605 25.8803C80.7655 25.8644 80.704 25.7389 80.7251 25.5992C80.7462 25.4596 80.8394 25.3588 80.9343 25.3747C81.0293 25.3906 81.0891 25.5162 81.0697 25.6558Z" fill="#FCFFFE"/>
<path d="M82.13 25.3268C82.1935 25.3376 82.2537 25.363 82.3058 25.401C82.5316 25.5529 82.6913 25.7855 82.7525 26.0517C82.7566 26.077 82.7556 26.1028 82.7495 26.1277C82.7435 26.1526 82.7325 26.1761 82.7173 26.1966C82.5681 26.3838 82.3703 26.5258 82.1458 26.6068C81.6584 26.7703 81.1367 26.8014 80.6335 26.697C80.3329 26.646 80.0362 26.5739 79.7455 26.4813C79.8546 26.2391 80.1711 25.6539 80.7672 25.4311H80.7795C80.7795 25.4311 81.1945 25.1871 82.1264 25.3374M82.137 25.2667C81.1628 25.1075 80.7443 25.3692 80.7443 25.3692C80.113 25.6044 79.7842 26.232 79.6892 26.4565C79.685 26.4665 79.6828 26.4772 79.6829 26.488C79.6829 26.4988 79.6851 26.5095 79.6894 26.5195C79.6937 26.5294 79.6999 26.5383 79.7078 26.5458C79.7156 26.5532 79.7249 26.5589 79.735 26.5626C80.0282 26.6574 80.328 26.7307 80.6318 26.7818C82.0579 27.0135 82.6153 26.476 82.7823 26.2514C82.8035 26.2229 82.8186 26.1902 82.8267 26.1556C82.8349 26.1209 82.836 26.085 82.8298 26.0499C82.7654 25.7645 82.5949 25.5147 82.3533 25.3515C82.2928 25.3073 82.223 25.2776 82.1493 25.2649L82.137 25.2667Z" fill="#633816"/>
<path d="M81.1719 24.9717C80.0412 25.1256 79.8039 26.0043 79.6984 26.3137C79.6368 26.4905 79.5226 26.5205 79.5789 26.5895C79.6351 26.6584 79.7987 26.5559 79.7987 26.5559C79.7987 26.5559 79.6966 26.6036 79.6544 26.5753C79.6122 26.547 79.6281 26.5064 79.6931 26.4798C79.6931 26.4798 79.9499 25.3412 81.441 25.2263C82.2182 25.1662 82.6719 25.5322 82.7633 25.9035C83.2188 25.7267 83.5265 25.1768 83.5265 25.1768C82.758 25.5127 82.3958 24.8056 81.1719 24.9717Z" fill="#000304"/>
<path d="M76.0818 31.9465C76.0818 31.9465 77.2529 34.2909 78.5612 34.2237C78.5612 34.2237 79.8061 34.2237 80.8471 31.9465H76.0818ZM76.5144 32.0897H80.3512C80.3512 32.0897 78.7177 33.8701 76.5144 32.0897Z" fill="#BF3761"/>
<path d="M80.5271 31.9589C80.5271 31.9589 78.7687 31.112 78.4417 31.9589Z" fill="#BF3761"/>
<path d="M76.354 31.9589C76.354 31.9589 78.1986 31.1279 78.524 31.9748Z" fill="#BF3761"/>
<path d="M76.5139 32.0896H80.3508C80.3508 32.0896 78.7172 33.87 76.5139 32.0896Z" fill="white"/>
<path d="M87.576 32.1287C86.0779 38.2742 79.2622 40.8591 76.6738 43.8806C78.1878 40.44 84.337 38.9001 87.576 32.1287Z" fill="#5B5F70"/>
<path d="M68.2173 30.2139C69.7823 37.6395 74.2891 39.5702 76.0335 41.4089C75.0487 38.6296 71.8168 38.9584 68.2173 30.2139Z" fill="#5B5F70"/>
<path d="M86.8412 42.5089C84.9456 46.2005 79.498 51.8068 67.6621 42.7387C79.6985 50.4844 85.598 44.5067 86.5493 42.1553C86.8007 42.5266 86.8412 42.5089 86.8412 42.5089Z" fill="#5B5F70"/>
<path d="M62.6636 45.6601C62.4677 45.6387 59.284 47.3395 58.6775 52.9734C58.0041 57.625 56.279 67.5276 54.9743 75.9221C54.9743 75.9221 53.04 82.5168 52.7551 94.2121C52.7551 94.2121 52.7552 95.9271 53.543 96.1251C53.4902 96.8677 53.2756 98.5366 53.2563 98.9062C53.2563 98.9062 55.9625 100.37 58.7074 99.2439C58.7074 99.2439 58.9307 97.5784 59.0011 96.7686C59.3404 96.751 60.0262 95.9076 60.3005 95.0466C60.3005 95.0466 62.1364 82.7095 63.1264 77.6106C63.6293 75.0204 65.5037 67.4764 66.2599 60.1073C66.9703 53.1414 65.813 46.5459 62.6636 45.6601Z" fill="#24262F"/>
<path d="M64.7844 47.4077C65.3639 48.5029 66.5158 51.6441 66.488 55.447C66.4602 59.2499 65.445 66.5972 65.0626 68.24" stroke="#5B5F70" stroke-width="0.409327"/>
</g>
<path fill-rule="evenodd" clip-rule="evenodd" d="M51.1239 79.7451C51.0444 78.9498 51.6874 76.3979 52.0939 74.7845L52.0939 74.7845C52.2579 74.1336 52.3834 73.6355 52.4074 73.467C52.7453 73.3579 53.3138 73.3045 53.921 73.2475C54.4004 73.2025 54.9039 73.1552 55.3372 73.0764C56.7881 74.611 56.0348 79.2708 55.951 79.7451C55.8673 80.2194 55.1419 81.8936 54.6396 82.2842C54.4844 82.4049 54.1372 82.6163 53.7366 82.8285C54.4994 81.7851 55.0439 80.2741 55.2932 79.5823C55.3532 79.4156 55.3962 79.2965 55.4209 79.243C55.4183 79.243 55.4057 79.2512 55.3872 79.2632C55.3377 79.2953 55.2464 79.3546 55.1976 79.3546C54.6459 81.1124 54.0677 82.2292 53.5893 82.9053C53.2556 83.0764 52.8978 83.241 52.5895 83.3511C53.6324 82.4046 54.3755 80.3423 54.6795 79.4987C54.7396 79.332 54.7825 79.2128 54.8072 79.1593C54.8047 79.1593 54.7879 79.1758 54.7634 79.1997C54.6978 79.2641 54.5769 79.3825 54.5282 79.3825C53.7073 81.9979 52.9639 82.8541 52.3994 83.4137C52.0037 83.5318 51.7351 83.5241 51.7936 83.2608C51.8843 82.8527 52.0978 82.4364 52.3587 81.9277C52.5794 81.4973 52.8341 81.0007 53.0771 80.3868C53.6072 79.0475 52.7981 78.4895 52.547 78.6011C52.4414 78.648 52.3507 79.0004 52.2436 79.4161C52.096 79.9895 51.9173 80.6832 51.6262 80.8612C51.2257 81.1059 51.2155 80.9603 51.1712 80.3253C51.16 80.164 51.1465 79.9712 51.1239 79.7451Z" fill="url(#paint1_linear_386_10203)"/>
<path fill-rule="evenodd" clip-rule="evenodd" d="M16.4696 80.84C16.6341 80.0579 16.2691 77.4516 16.0383 75.8039L16.0383 75.8039C15.9452 75.1392 15.8739 74.6305 15.8681 74.4604C15.544 74.3156 14.9845 74.2014 14.3869 74.0795C13.9152 73.9832 13.4196 73.8821 12.9973 73.7572C11.3899 75.1271 11.6382 79.8407 11.6704 80.3213C11.7027 80.8019 12.244 82.5443 12.7014 82.9867C12.8427 83.1233 13.1649 83.3706 13.5402 83.6245C12.894 82.5052 12.515 80.9445 12.3416 80.23C12.2998 80.0578 12.2699 79.9348 12.2511 79.8789C12.2536 79.8792 12.2653 79.8887 12.2824 79.9026C12.3282 79.9399 12.4125 80.0086 12.461 80.0138C12.8206 81.8207 13.2754 82.9931 13.6784 83.7167C13.9919 83.9228 14.3303 84.125 14.6251 84.2677C13.6898 83.2147 13.1726 81.0843 12.961 80.2128L12.961 80.2128C12.9191 80.0406 12.8893 79.9175 12.8705 79.8617C12.873 79.8619 12.8879 79.8801 12.9096 79.9066L12.9096 79.9066C12.968 79.9776 13.0754 80.1083 13.1239 80.1136C13.659 82.8023 14.3062 83.7333 14.8073 84.3504C15.188 84.5103 15.4559 84.5314 15.426 84.2634C15.3797 83.8479 15.2122 83.4111 15.0074 82.8773C14.8342 82.4257 14.6344 81.9046 14.4588 81.2682C14.0756 79.8797 14.9401 79.4118 15.1777 79.5497C15.2776 79.6077 15.33 79.9679 15.3917 80.3926C15.4769 80.9786 15.5799 81.6875 15.8503 81.8957C16.2222 82.1821 16.2479 82.0384 16.3602 81.4118C16.3887 81.2527 16.4228 81.0624 16.4696 80.84Z" fill="url(#paint2_linear_386_10203)"/>
<path d="M40.9393 19.9503C41.6089 17.9972 43.0041 15.179 43.0041 10.4635C43.0041 5.74808 38.5397 2.0961 34.438 2.2602C30.3364 2.42431 26.1789 5.9713 26.43 10.4636C26.6811 14.9558 27.9926 17.7739 28.8854 19.9503C29.7783 22.1267 31.5681 24.4008 35.0518 24.5263C38.149 24.6379 40.2696 21.9035 40.9393 19.9503Z" fill="url(#paint3_linear_386_10203)"/>
<path d="M40.2702 9.93327C41.0793 10.0728 41.3025 9.96117 41.9443 9.79376L40.2702 8.84508L34.5781 8.70557L28.6348 8.84508C28.0582 9.0683 27.1839 9.62635 28.3 10.0728C29.6951 10.6308 30.2811 10.1844 30.9228 10.0728C31.5646 9.96117 32.4854 9.79376 32.7644 9.79376C33.0434 9.79376 34.299 11.3284 34.6897 11.2168C35.0803 11.1052 35.75 9.79376 36.2243 9.79376C36.6986 9.79376 39.461 9.79376 40.2702 9.93327Z" fill="#C68472"/>
<path fill-rule="evenodd" clip-rule="evenodd" d="M38.4564 1.18481C37.3564 0.761522 35.5925 0.082776 35.0801 0.0558048C35.0319 0.05327 34.9702 0.0479718 34.896 0.0416048C34.1534 -0.0221139 32.1632 -0.192878 30.0576 1.22771C27.7417 2.79024 24.5051 5.35726 24.0307 5.94321C23.5564 6.52916 23.8912 9.15199 24.2818 9.87745C24.6725 10.6029 25.1747 12.8072 24.9236 14.5372C24.8691 14.9125 24.7988 15.3667 24.7208 15.8712C24.4392 17.6918 24.0562 20.1677 23.947 21.9592C23.9246 22.3268 23.8928 22.7593 23.8579 23.2342C23.6756 25.7146 23.4084 29.3513 23.947 30.9438C25.8434 30.5224 27.4471 30.1009 28.8362 29.736C31.4938 29.0376 33.3654 28.5458 34.9964 28.6558C37.4797 28.8232 43.3113 30.7485 45.1528 31.4739C46.548 29.8556 47.8036 26.1167 47.6362 23.0195C47.4687 19.9223 46.8549 17.9692 46.3247 17.439C47.6362 16.016 48.836 12.1375 46.6596 8.39863C45.9708 7.27277 45.062 6.19092 44.2704 5.2486C43.3944 4.20585 42.6619 3.33396 42.53 2.76234C42.2789 1.67414 41.9162 1.39512 41.4697 1.36722C41.3518 1.35985 41.1618 1.38169 40.928 1.40856C40.277 1.4834 39.2865 1.59726 38.5679 1.22771C38.5316 1.21374 38.4944 1.19943 38.4564 1.18481ZM40.6889 9.73794C41.1633 9.84955 41.5818 9.87745 41.8887 9.87745C42.1956 9.87745 42.5026 10.0728 42.7258 10.296C42.753 10.3232 42.784 10.3534 42.8176 10.3861C43.0594 10.6214 43.437 10.9888 43.535 11.3563C43.623 11.6865 43.5721 12.2079 43.5467 12.4679C43.5399 12.5375 43.535 12.5883 43.535 12.6119C43.535 12.7235 43.3955 13.4769 43.3676 13.5885C43.3452 13.6778 43.2094 13.8303 43.1443 13.8954C42.856 14.7139 42.2403 16.4345 42.084 16.7694C41.9819 16.9883 41.6658 17.9099 41.3637 18.7909C41.0884 19.5939 40.8246 20.3632 40.7447 20.5362C40.5773 20.8989 39.4891 22.5451 39.2938 22.7405C39.1926 22.8416 39.0091 22.9652 38.8441 23.0764C38.6905 23.1799 38.5529 23.2726 38.5125 23.3264C38.4501 23.4096 38.4188 23.7253 38.3953 23.9615C38.3872 24.0423 38.3801 24.1137 38.373 24.1635C38.3715 24.1739 38.3701 24.1848 38.3686 24.196C38.3427 24.3951 38.3003 24.7205 37.508 25.1959C37.0657 25.4613 36.5298 25.6566 36.0734 25.8229C35.6661 25.9713 35.3221 26.0967 35.1642 26.2283C35.0424 26.1286 34.7842 26.0597 34.4386 25.9674C33.9136 25.8273 33.1869 25.6333 32.4298 25.1959C31.8718 24.889 31.509 24.5541 31.3974 23.3264C31.1184 23.159 29.6675 21.457 29.4442 21.0942C29.221 20.7315 28.4956 19.2248 28.384 18.8062C28.2723 18.3877 26.7377 14.1744 26.5145 13.8675C26.3579 13.6522 26.3249 13.3544 26.2902 13.0417C26.2755 12.9087 26.2605 12.773 26.2355 12.6398C26.1518 12.1934 26.0402 11.3842 26.375 10.9936C26.7098 10.6029 27.4632 9.93326 28.5235 10.1286C29.2058 10.2543 30.512 9.91776 31.5054 9.66188C32.0556 9.52013 32.5099 9.40311 32.7088 9.40311C32.9632 9.40311 33.148 9.77417 33.3504 10.1806C33.5921 10.6659 33.8589 11.2016 34.2993 11.2168C34.8482 11.2357 35.2174 10.4328 35.4677 9.88825C35.5864 9.63011 35.6784 9.43003 35.7502 9.40311C35.9288 9.33615 39.1171 9.59843 40.6889 9.73794Z" fill="white"/>
<path fill-rule="evenodd" clip-rule="evenodd" d="M41.3062 18.9439C41.1709 19.3042 41.0455 19.6381 40.9385 19.9501C40.3267 21.7344 38.504 24.1707 35.8321 24.4935C35.5387 26.1022 35.1945 28.3068 35.3025 28.9906C35.4699 30.0509 38.874 28.1256 39.0693 27.9303C39.2647 27.735 41.5527 24.7215 42.2502 22.5451C42.7036 21.1305 42.5794 19.3033 42.4829 17.8834C42.4309 17.1187 42.3869 16.4722 42.4455 16.0718C42.3827 16.1081 42.3093 16.1601 42.2266 16.2262C41.9311 17.2802 41.596 18.1723 41.3062 18.9439Z" fill="#D2D2DF"/>
<path d="M30.3643 4.85496C31.8989 5.02237 38.8466 5.13398 40.6044 4.38062C40.1022 4.79915 39.8232 5.66413 38.7071 7.03134C37.591 8.39856 33.4335 7.86842 31.8989 7.86842C30.3643 7.86842 30.3643 6.08266 30.3643 4.85496Z" fill="black"/>
<path d="M34.0196 1.08803C35.0799 0.892708 37.1726 1.19964 39.042 1.67398C38.1212 1.62748 35.9393 1.60702 34.5777 1.8972C32.8756 2.25994 32.4012 3.32023 32.2896 3.73876C32.178 4.1573 30.6713 4.71535 30.755 3.48764C30.8387 2.25994 33.6344 1.15897 34.0196 1.08803Z" fill="#D2D2DF"/>
<path d="M27.9648 7.22656C28.5507 7.67299 30.476 9.31923 32.9035 9.57035C30.6155 9.57035 28.8856 8.20314 28.5228 7.97992C28.2159 7.97992 27.8532 7.97992 27.3509 8.20314C27.044 8.56587 27.5462 10.1284 27.4625 10.519C27.3788 10.9097 26.4022 12.0537 26.3185 11.6909C26.2348 11.3282 25.8721 10.1842 25.1745 9.40294C24.477 8.62168 24.8118 7.50558 25.6489 7.03124C26.486 6.55689 27.3788 6.78012 27.9648 7.22656Z" fill="#D2D2DF"/>
<path d="M32.3739 23.8843L34.7735 25.1399L37.6195 24.1633L38.2055 29.2415H31.5647L32.3739 23.8843Z" fill="url(#paint4_linear_386_10203)"/>
<path d="M32.8756 8.76132C33.0151 8.76132 34.7451 8.67762 35.5821 8.76132C33.9638 8.95662 34.4939 9.68212 34.2707 9.31939C34.0475 8.95666 32.7361 8.76132 32.8756 8.76132Z" fill="#D2D2DF"/>
<path d="M42.4741 8.06371C42.8927 8.25903 43.7576 8.64966 44.7063 8.78917C43.8693 8.78917 43.953 9.17982 43.8972 9.98899C43.8414 10.7982 43.3391 11.0493 42.6974 10.9935C42.0556 10.9377 42.223 10.4354 42.1951 9.82157C42.1672 9.20772 41.5255 8.06371 41.2185 7.78469C39.2654 7.59798 38.2888 8.70548 38.1772 8.67757C38.0656 8.64967 38.3167 8.34274 38.9863 7.78469C39.656 7.22664 40.7163 7.31035 41.2185 7.33825C41.7208 7.36615 42.0556 7.8684 42.4741 8.06371Z" fill="#D2D2DF"/>
<path d="M44.9292 8.92871C45.4872 9.04032 47.2451 10.0727 47.5241 10.575C47.6502 10.8019 47.7592 11.3423 47.8382 11.8793C47.9976 12.4656 47.9842 12.9806 47.9729 13.1784C47.9737 13.2159 47.9729 13.2417 47.9706 13.2536C47.9647 13.2828 47.9687 13.2533 47.9729 13.1784C47.9687 12.9755 47.9192 12.4292 47.8382 11.8793C47.7699 11.6279 47.6698 11.3633 47.5241 11.1051C46.9103 10.0169 46.0174 9.73788 44.9292 8.92871Z" fill="#D2D2DF"/>
<path d="M43.3669 10.9935C43.8412 11.5516 43.4506 12.6956 43.3669 13.728C43.0321 14.3139 41.8602 13.3373 41.4974 13.728C41.1347 14.1186 41.6369 16.7414 41.4974 17.2437C41.3579 17.7459 40.772 17.0763 40.772 16.7414C40.772 16.4066 40.465 10.9935 41.2742 10.1565C42.0834 9.31939 42.8925 10.4355 43.3669 10.9935Z" fill="black"/>
<path d="M42.1987 13.4871C40.6325 13.2504 41.3858 18.3023 42.2685 17.1017C43.5064 15.1734 43.765 13.7239 42.1987 13.4871Z" fill="#E9A998"/>
<path d="M42.2833 15.8887C42.085 15.9768 41.8836 15.7858 41.765 15.4831C41.6943 14.8474 42.1189 15.3196 42.2979 15.2276C42.3426 15.2046 42.9463 14.7475 41.9032 14.4981C42.901 14.2033 42.8783 15.6243 42.2833 15.8887Z" fill="#DA9684"/>
<path d="M26.3804 10.9935C25.9061 11.5516 26.2967 12.6956 26.3804 13.728C26.7153 14.3139 27.8872 13.3373 28.2499 13.728C28.6126 14.1186 28.1104 16.7414 28.2499 17.2437C28.3894 17.7459 28.9754 17.0763 28.9754 16.7414C28.9754 16.4066 29.2823 10.9935 28.4731 10.1565C27.6639 9.31939 26.8548 10.4355 26.3804 10.9935Z" fill="black"/>
<path d="M27.4789 17.1017C28.3615 18.3023 29.1149 13.2504 27.5486 13.4871C27.0282 13.5658 26.7092 13.7783 26.5607 14.0978C26.7247 14.6437 26.9637 15.0104 27.3229 16.3141C27.3719 16.402 27.4214 17.0122 27.4789 17.1017Z" fill="#E9A998"/>
<path d="M38.6789 13.3374C39.3486 13.6165 39.4602 14.3698 39.4044 14.3698C38.4557 14.5931 36.4356 15.0116 35.9445 14.9C35.8329 14.3419 36.1119 13.9513 36.7258 13.4769C37.3396 13.0026 38.0093 13.0584 38.6789 13.3374Z" fill="black"/>
<path d="M36.3356 12.3049C36.0566 12.4723 35.3311 13.3093 35.7676 13.5148C36.2519 13.5148 36.3356 12.277 37.8981 12.3886C39.1481 12.4779 39.5722 12.9187 39.7487 12.6493C38.1909 11.0915 36.5455 12.1789 36.3356 12.3049Z" fill="black"/>
<path d="M37.4985 13.6879C37.8446 13.5148 38.7101 13.5148 39.4024 14.3802C38.2607 15.6253 36.8097 14.8995 35.9407 14.8995C36.4599 14.034 37.3254 13.7744 37.4985 13.6879Z" fill="white"/>
<path d="M36.7542 14.0629C37.0895 15.5347 38.7384 14.6498 38.0677 13.6164C37.7865 13.5607 37.7706 13.5059 37.4238 13.7001C37.077 13.8944 37.0616 13.8124 36.7542 14.0629Z" fill="#816145"/>
<path d="M37.0404 14.2956C37.2702 14.6392 37.6403 14.6295 37.8701 14.2859C37.9467 14.1714 38.0983 13.8633 37.7306 13.5884C37.3254 13.6926 37.1516 13.8001 37.0051 13.8953C36.9566 14.0334 36.9651 14.1829 37.0404 14.2956Z" fill="black"/>
<path d="M30.8713 13.3374C30.2017 13.6165 30.0901 14.3698 30.1459 14.3698C31.0946 14.5931 33.1147 15.0116 33.6058 14.9C33.7174 14.3419 33.4384 13.9513 32.8245 13.4769C32.2107 13.0026 31.541 13.0584 30.8713 13.3374Z" fill="black"/>
<path d="M33.2152 12.3049C33.4942 12.4723 34.2197 13.3093 33.7832 13.5148C33.2989 13.5148 33.2152 12.277 31.6527 12.3886C30.4027 12.4779 29.9785 12.9187 29.8021 12.6493C31.3599 11.0915 33.0053 12.1789 33.2152 12.3049Z" fill="black"/>
<path d="M32.0523 13.6879C31.7061 13.5148 30.8407 13.5148 30.1483 14.3802C31.2901 15.6253 32.741 14.8995 33.6101 14.8995C33.0908 14.034 32.2254 13.7744 32.0523 13.6879Z" fill="white"/>
<path d="M32.792 14.035C32.4432 15.5068 30.7875 14.6498 31.4851 13.6165C31.5643 13.5607 31.7617 13.5059 32.1223 13.7001C32.483 13.8944 32.4722 13.7845 32.792 14.035Z" fill="#816145"/>
<path d="M32.5104 14.2956C32.2806 14.6392 31.9616 14.6392 31.7318 14.2956C31.6552 14.181 31.4525 13.8633 31.8202 13.5884C32.2254 13.6926 32.3992 13.8001 32.5457 13.8953C32.5942 14.0334 32.5857 14.1829 32.5104 14.2956Z" fill="black"/>
<path d="M33.9915 17.0485L34.1589 15.0674H33.9915V17.0485Z" fill="#C28578"/>
<path d="M35.3587 17.2438V15.1511H35.554L35.3587 17.2438Z" fill="#C28578"/>
<path d="M32.3176 21.0664C34.0476 21.2338 35.1358 21.2338 37.4238 21.0664C37.2005 21.8585 35.9821 22.3778 35.0521 22.3778C34.3266 22.3778 33.4616 22.5452 32.3176 21.0664Z" fill="#E6745B"/>
<path d="M32.708 21.2336C33.4056 21.3732 35.3308 21.3173 37.0608 21.2336C36.8934 21.8475 35.4703 22.0986 34.7728 22.0986C34.0752 22.0986 33.2103 21.9591 32.708 21.2336Z" fill="white"/>
<path d="M33.8521 17.8017C33.7684 17.5785 33.294 17.4948 33.0708 17.8017C33.3219 17.6243 33.4447 17.6901 33.6009 17.6901C33.7963 17.6901 33.7126 18.2203 34.1311 18.4435C34.5496 18.6667 34.9961 18.4435 35.1356 18.2482C35.2751 18.0529 35.1914 18.1366 35.6378 17.9133C35.995 17.7348 35.861 17.4483 35.7494 17.3274C35.8052 17.4297 35.7997 17.6678 35.3309 17.8017C34.7449 17.9691 34.8566 18.4714 34.5775 18.4993C34.2985 18.5272 33.9358 18.025 33.8521 17.8017Z" fill="#C28578"/>
<path fill-rule="evenodd" clip-rule="evenodd" d="M38.7072 19.8106C38.6514 20.8709 38.5063 23.2314 38.3724 24.1913C38.2544 25.0367 36.7787 25.5774 35.8685 25.9108C35.487 26.0506 35.2048 26.154 35.1636 26.2282C35.1254 26.167 34.8606 26.089 34.4902 25.9799C33.5093 25.691 31.787 25.1837 31.5642 24.1913C31.2573 22.8241 31.0899 20.3128 31.1178 20.0617C31.1457 19.8106 33.1546 19.0572 33.6848 18.9735C33.9827 18.9265 34.2189 19.0028 34.4232 19.0688C34.5824 19.1202 34.7222 19.1654 34.8567 19.1409C34.9423 19.1254 35.054 19.0924 35.1815 19.0548C35.5109 18.9577 35.9455 18.8295 36.3076 18.8898C36.7094 18.9568 38.0748 19.5316 38.7072 19.8106ZM37.9813 20.4803V22.7125C37.9813 23.4379 35.4507 24.4197 35.2748 24.0239C35.1632 23.7727 35.0748 23.7169 34.9121 23.7169C34.7726 23.7169 34.6365 23.8844 34.5493 24.0239C34.4098 24.2471 32.5125 23.996 31.787 22.8241V20.4803C32.2241 20.3407 33.45 20.0617 34.8563 20.0617C36.2625 20.0617 37.5256 20.3407 37.9813 20.4803Z" fill="black"/>
<path d="M39.7117 1.78564C40.1581 1.92516 40.8278 2.73433 41.051 3.09706C41.051 2.87384 41.1119 2.59481 41.051 2.4832C40.8836 2.17628 40.6324 1.78564 39.7117 1.78564Z" fill="black"/>
<path d="M35.861 22.2383C35.7215 22.322 34.438 22.4336 33.8521 22.2383C34.0195 22.7684 34.6333 22.9079 34.6612 23.1033C34.6891 23.2986 34.996 23.3544 35.0798 23.1033C35.1635 22.8521 35.4983 22.8242 35.861 22.2383Z" fill="black"/>
<g clip-path="url(#clip1_386_10203)">
<path d="M40.8401 135.94L41.5132 140.51L44.9682 140.08L44.6355 135.94H40.8401Z" fill="url(#paint5_linear_386_10203)"/>
<path d="M42.4934 144.734C42.4934 144.734 43.1963 146.498 45.2118 146.167C47.2273 145.836 46.8493 144.11 46.8493 144.11L42.4934 144.734Z" fill="#2B2538"/>
<path d="M46.4957 142.473C46.0116 141.445 44.9423 139.574 44.9423 139.574C43.1301 138.5 42.0285 139.034 41.5107 139.528L41.4472 139.581C41.4472 139.581 41.3954 139.6 41.3048 139.115C41.3048 139.115 41.1573 140.212 41.3877 140.86C41.5029 141.248 41.9767 141.827 42.0634 143.292C42.1929 145.507 43.8407 146.053 45.5365 145.655C47.2323 145.256 46.9812 143.5 46.4957 142.473Z" fill="black"/>
<path d="M42.8284 143.909C42.8284 143.909 45.5106 145.116 46.4296 143.468C46.4296 143.468 47.0316 144.663 45.0161 144.999C43.6983 145.219 42.8284 143.909 42.8284 143.909Z" fill="#4F475E"/>
<path d="M22.092 136.199L22.1386 140.471H25.9302L26.004 136.199H22.092Z" fill="url(#paint6_linear_386_10203)"/>
<path d="M26.3926 141.692L26.3188 142.728C25.6445 143.115 24.8745 143.304 24.0975 143.272C24.0975 143.272 22.9027 142.844 22.2295 143.437C20.9635 144.551 16.8742 145.389 16.4509 143.898L26.3926 141.692Z" fill="#2B2538"/>
<path d="M26.2753 139.185C26.2753 139.185 26.7763 141.597 26.3685 141.943C25.9608 142.289 23.298 142.726 21.9505 143.415C20.6029 144.104 16.5602 144.857 16.3725 143.697C16.1848 142.537 17.8457 141.818 18.9732 141.379C20.1007 140.94 21.2294 139.372 21.821 139.178C21.821 139.178 22.3906 138.927 23.3938 139.579C24.0242 139.994 25.5854 138.84 26.2753 139.185Z" fill="black"/>
<path d="M16.9955 142.542C16.9955 142.542 17.5457 143.499 20.0052 143.207C20.0052 143.207 17.6583 143.847 16.5178 143.295C16.6226 143.013 16.7853 142.757 16.9955 142.542Z" fill="#4F475E"/>
</g>
<path d="M18.3104 34.8555C20.2503 32.6459 23.1934 30.2795 30.0294 29.3308C31.5548 29.2766 37.3544 29.1613 38.6234 29.3308C43.7574 30.7259 47.9958 31.842 50.0355 34.8555C54.3604 41.2452 56.3135 69.1476 56.2019 69.5661C56.0903 69.9847 55.4206 70.0963 55.4206 70.4311C55.4206 70.7659 55.6439 72.9702 55.4206 73.1655C55.1974 73.3609 51.6817 74.0026 51.3748 73.9468C51.0679 73.891 51.2911 72.3843 50.7051 71.8262C50.1192 71.2682 50.2866 71.9936 49.7565 71.2682C49.2263 70.5427 46.3213 53.9408 46.4082 48.9463C45.6827 52.6573 48.4729 97.4964 48.3055 101.04C48.1381 104.584 50.5656 136.337 50.3982 136.867C50.2308 137.397 42.6692 137.899 37.6747 138.68C32.6802 139.462 14.6552 138.792 14.8226 137.899C14.9566 137.185 20.1427 78.2996 22.719 48.9463C21.2495 56.2009 18.1988 70.8217 17.7524 71.2682C17.1943 71.8262 17.2501 72.0774 16.6921 72.6633C16.134 73.2493 17.2501 74.2816 16.2736 75.0908C15.297 75.9 11.4743 74.7839 11.558 74.2816C11.6418 73.7794 12.8695 71.5193 12.3672 71.2682C11.865 71.0171 11 71.1845 11 70.7101C11 70.2358 13.0927 40.7987 18.3104 34.8555Z" fill="white"/>
<path d="M36.698 49.3036C37.2561 43.0534 36.0377 33.3806 35.3587 29.3254H35.1355C36.3074 39.9005 36.8217 44.1974 36.3074 49.9453C36.4376 49.9453 36.5195 49.3036 36.698 49.3036Z" fill="#D2D2DF"/>
<path d="M43.8415 41.9932C43.5624 43.6952 38.5958 56.3629 34.3267 59.9065M44.5948 53.5727C44.3716 53.8628 40.3909 58.902 38.4284 61.3853M25.677 72.3789C28.1045 77.5966 33.099 82.2005 32.6526 84.3211" stroke="#EDEDF4" stroke-width="0.334368"/>
<path d="M39.5999 105.694C40.1022 110.103 44.9014 136.024 45.013 137.782C43.8876 137.894 41.2908 138.173 39.9069 138.396C41.581 130.583 38.7071 113.591 39.5999 105.694Z" fill="#D2D2DF"/>
<path d="M25.9557 130.388C25.7325 130.751 25.5092 135.829 25.9557 138.982H24.5605C25.0907 137.615 25.2581 130.974 25.9557 130.388Z" fill="#D2D2DF"/>
<path fill-rule="evenodd" clip-rule="evenodd" d="M35.3594 29.4649H39.2093L38.3443 26.3398H35.3594V29.4649ZM34.2307 26.3398H31.5362L30.3643 29.4649H35.3396L34.2307 26.3398Z" fill="white"/>
<path d="M27.4484 16.0001C27.6467 16.0882 27.8481 15.8971 27.9667 15.5944C28.0374 14.9588 27.6128 15.431 27.4338 15.3389C27.389 15.3159 26.7854 14.8588 27.8285 14.6094C26.8307 14.3146 26.8534 15.7357 27.4484 16.0001Z" fill="#DA9684"/>
<path d="M37.5071 29.967C37.7582 29.8554 39.3207 29.967 39.3765 29.688C40.6415 30.0042 43.5954 30.7985 45.2919 31.4458C46.7428 33.4827 47.1334 37.0542 46.8265 38.2261C46.5196 39.398 40.6042 35.6033 40.6601 34.8778C40.7159 34.1524 37.5071 30.246 37.5071 29.967Z" fill="url(#paint7_linear_386_10203)"/>
<g filter="url(#filter0_f_386_10203)">
<path d="M105.56 110.528H31.0581L11 127.445L31.0581 145.528H105.56L126 127.445L105.56 110.528Z" fill="#11222E"/>
</g>
<path d="M92.0482 61H26.6163L9 74.8375L26.6163 89.6292H92.0482L110 74.8375L92.0482 61Z" fill="url(#paint8_linear_386_10203)"/>
<path d="M27.0737 152V89.6292H91.9264V152H27.0737Z" fill="url(#paint9_linear_386_10203)"/>
<path d="M27.0737 152V89.6292H91.9264V152H27.0737Z" fill="url(#paint10_linear_386_10203)"/>
<path d="M27.0737 89.6294L9 74.415V136.786L27.0737 152V89.6294Z" fill="#407781"/>
<path d="M27.0737 89.6294L9 74.415V136.786L27.0737 152V89.6294Z" fill="url(#paint11_linear_386_10203)"/>
<path d="M91.9263 89.6292L110 74.4148V136.786L91.9263 152V89.6292Z" fill="#407781"/>
<path d="M91.9263 89.6292L110 74.4148V136.786L91.9263 152V89.6292Z" fill="url(#paint12_linear_386_10203)"/>
<path d="M96.9852 175.066C96.0824 175.1 91.3344 174.531 91 174.464C91.6687 174.598 91.4012 175.668 93.14 175.2C93.8958 174.996 96.283 175.233 96.9852 175.066Z" fill="#D2D2DF"/>
<defs>
<filter id="filter0_f_386_10203" x="0" y="99.5283" width="137" height="57" filterUnits="userSpaceOnUse" color-interpolation-filters="sRGB">
<feFlood flood-opacity="0" result="BackgroundImageFix"/>
<feBlend mode="normal" in="SourceGraphic" in2="BackgroundImageFix" result="shape"/>
<feGaussianBlur stdDeviation="5.5" result="effect1_foregroundBlur_386_10203"/>
</filter>
<linearGradient id="paint0_linear_386_10203" x1="69.5135" y1="21.0878" x2="75.0624" y2="24.3802" gradientUnits="userSpaceOnUse">
<stop stop-color="#F4AB90"/>
<stop offset="1" stop-color="#FDD7C8"/>
</linearGradient>
<linearGradient id="paint1_linear_386_10203" x1="54.3327" y1="74.3599" x2="52.3795" y2="71.8208" gradientUnits="userSpaceOnUse">
<stop stop-color="#F4C6B9"/>
<stop offset="1" stop-color="#D3846F"/>
</linearGradient>
<linearGradient id="paint2_linear_386_10203" x1="12.9813" y1="75.9782" x2="16.0728" y2="72.8267" gradientUnits="userSpaceOnUse">
<stop stop-color="#F4C6B9"/>
<stop offset="1" stop-color="#D3846F"/>
</linearGradient>
<linearGradient id="paint3_linear_386_10203" x1="29.3598" y1="13.3933" x2="34.2148" y2="19.3086" gradientUnits="userSpaceOnUse">
<stop stop-color="#F4AB90"/>
<stop offset="1" stop-color="#EEC6B6"/>
</linearGradient>
<linearGradient id="paint4_linear_386_10203" x1="35.6664" y1="27.2326" x2="35.6406" y2="25.446" gradientUnits="userSpaceOnUse">
<stop stop-color="#F3D1C8"/>
<stop offset="1" stop-color="#D3846F"/>
</linearGradient>
<linearGradient id="paint5_linear_386_10203" x1="42.5021" y1="136.889" x2="42.8837" y2="138.877" gradientUnits="userSpaceOnUse">
<stop stop-color="#F3D1C8"/>
<stop offset="1" stop-color="#D3846F"/>
</linearGradient>
<linearGradient id="paint6_linear_386_10203" x1="24.0585" y1="138.34" x2="23.9018" y2="139.482" gradientUnits="userSpaceOnUse">
<stop stop-color="#F3D1C8"/>
<stop offset="1" stop-color="#D3846F"/>
</linearGradient>
<linearGradient id="paint7_linear_386_10203" x1="42.2156" y1="29.688" x2="39.4323" y2="36.831" gradientUnits="userSpaceOnUse">
<stop stop-color="#D2D2DF" stop-opacity="0.53"/>
<stop offset="1" stop-color="white" stop-opacity="0"/>
</linearGradient>
<linearGradient id="paint8_linear_386_10203" x1="59.5" y1="61" x2="59.5" y2="89.6292" gradientUnits="userSpaceOnUse">
<stop stop-color="#39CCDB"/>
<stop offset="1" stop-color="#005A6A"/>
</linearGradient>
<linearGradient id="paint9_linear_386_10203" x1="60.0316" y1="150.714" x2="60.0316" y2="94.1301" gradientUnits="userSpaceOnUse">
<stop stop-color="#2EE7C5"/>
<stop offset="1" stop-color="#127C94"/>
</linearGradient>
<linearGradient id="paint10_linear_386_10203" x1="59.364" y1="140.812" x2="59.4898" y2="152" gradientUnits="userSpaceOnUse">
<stop stop-color="#D3D3D3" stop-opacity="0"/>
<stop offset="1" stop-opacity="0.65"/>
</linearGradient>
<linearGradient id="paint11_linear_386_10203" x1="22.4514" y1="132.823" x2="15.4017" y2="141.821" gradientUnits="userSpaceOnUse">
<stop stop-color="#0D9181" stop-opacity="0"/>
<stop offset="1" stop-opacity="0.5"/>
</linearGradient>
<linearGradient id="paint12_linear_386_10203" x1="96.5486" y1="132.823" x2="103.598" y2="141.821" gradientUnits="userSpaceOnUse">
<stop stop-color="#0D9181" stop-opacity="0"/>
<stop offset="1" stop-opacity="0.5"/>
</linearGradient>
<clipPath id="clip0_386_10203">
<rect width="53" height="61" fill="white" transform="translate(49 12)"/>
</clipPath>
<clipPath id="clip1_386_10203">
<rect width="30.5252" height="10.2681" fill="white" transform="translate(16.3572 135.94)"/>
</clipPath>
</defs>
</svg>
